{
	"asset":{
		"generator":"Khronos glTF Blender I/O v5.0.21",
		"version":"2.0"
	},
	"extensionsUsed":[
		"KHR_materials_unlit",
		"KHR_materials_emissive_strength"
	],
	"scene":0,
	"scenes":[
		{
			"name":"Scene",
			"nodes":[
				0,
				1,
				18,
				35,
				36,
				37,
				38,
				39,
				40,
				41
			]
		}
	],
	"nodes":[
		{
			"mesh":0,
			"name":"Sphere",
			"scale":[
				1.445543646812439,
				1.445543646812439,
				1.445543646812439
			],
			"translation":[
				0,
				0.140188530087471,
				0
			]
		},
		{
			"name":"Empty",
			"rotation":[
				0.5,
				0.5,
				-0.5,
				0.5
			],
			"scale":[
				5.020482063293457,
				5.020482063293457,
				5.020482063293457
			],
			"translation":[
				0,
				0,
				-6.364558219909668
			]
		},
		{
			"name":"Bone.010",
			"rotation":[
				-1.5722879709301196e-07,
				0.4472135305404663,
				1.2143580363499495e-07,
				0.8944272398948669
			],
			"scale":[
				0.9999999403953552,
				1,
				0.9999999403953552
			],
			"translation":[
				2.0675361156463623e-07,
				0.337476909160614,
				-2.0116567611694336e-07
			]
		},
		{
			"children":[
				2
			],
			"name":"Bone.006",
			"rotation":[
				6.473085534253187e-08,
				-0.31622764468193054,
				-3.6752400234263405e-08,
				0.9486833214759827
			],
			"scale":[
				1,
				0.9999999403953552,
				1
			],
			"translation":[
				5.960464477539062e-07,
				0.6749535202980042,
				-8.940696716308594e-08
			]
		},
		{
			"children":[
				3
			],
			"name":"Bone",
			"rotation":[
				0.8944272398948669,
				-2.6551875365043998e-08,
				-0.4472135305404663,
				1.5306378031709755e-07
			],
			"scale":[
				1.0000001192092896,
				1,
				1.0000001192092896
			],
			"translation":[
				-0.6127778887748718,
				0.9978891015052795,
				0.014172183349728584
			]
		},
		{
			"name":"Bone.011",
			"rotation":[
				-8.369050163992142e-08,
				0.4472135305404663,
				1.6308584349644661e-07,
				0.8944272398948669
			],
			"scale":[
				0.9999999403953552,
				0.9999998211860657,
				0.9999998211860657
			],
			"translation":[
				-6.556510925292969e-07,
				0.33747631311416626,
				5.21540641784668e-08
			]
		},
		{
			"children":[
				5
			],
			"name":"Bone.007",
			"rotation":[
				9.22798122360291e-08,
				-0.3162277638912201,
				-7.117329836603403e-09,
				0.9486833214759827
			],
			"scale":[
				0.9999999403953552,
				1.0000001192092896,
				1
			],
			"translation":[
				-1.1920928955078125e-07,
				0.6749536395072937,
				0
			]
		},
		{
			"children":[
				6
			],
			"name":"Bone.001",
			"rotation":[
				0.8944272398948669,
				2.3428130546676584e-08,
				-0.44721347093582153,
				1.6803174673896137e-07
			],
			"scale":[
				1.0000001192092896,
				1,
				1.0000001192092896
			],
			"translation":[
				-1.2933810949325562,
				0.9745619297027588,
				0.014172406867146492
			]
		},
		{
			"name":"Bone.013",
			"rotation":[
				-5.6752462285203364e-08,
				1.1641533570472262e-10,
				-1.3271347576448989e-08,
				1
			],
			"scale":[
				1,
				1.0000001192092896,
				1.0000001192092896
			],
			"translation":[
				-2.2351741790771484e-08,
				0.33747705817222595,
				3.557652235031128e-07
			]
		},
		{
			"children":[
				8
			],
			"name":"Bone.009",
			"rotation":[
				4.359753802418709e-08,
				-1.1757948215063152e-07,
				-1.076841904534831e-08,
				1
			],
			"scale":[
				0.9999999403953552,
				0.9999998807907104,
				1
			],
			"translation":[
				1.1920928955078125e-07,
				0.6749534606933594,
				-2.7939677238464355e-08
			]
		},
		{
			"children":[
				9
			],
			"name":"Bone.003",
			"rotation":[
				1,
				3.841705620288849e-09,
				1.200241968035698e-07,
				1.26776285469532e-07
			],
			"scale":[
				1,
				1,
				1.0000001192092896
			],
			"translation":[
				0.8691815137863159,
				1.080220103263855,
				0.014172266237437725
			]
		},
		{
			"name":"Bone.005",
			"rotation":[
				2.561137080192566e-09,
				1.909211277961731e-08,
				1.30385160446167e-08,
				1
			],
			"scale":[
				1,
				0.9999999403953552,
				1
			],
			"translation":[
				1.4901161193847656e-07,
				0.5000001788139343,
				-3.371387720108032e-07
			]
		},
		{
			"children":[
				11
			],
			"name":"Bone.004",
			"rotation":[
				0.9542476534843445,
				-0.29901742935180664,
				8.051803668251978e-09,
				1.6628186472189554e-07
			],
			"scale":[
				1,
				1,
				1.0000001192092896
			],
			"translation":[
				1.8954964876174927,
				-0.24547499418258667,
				0.014172608032822609
			]
		},
		{
			"name":"Bone.012",
			"rotation":[
				-6.40284159025839e-10,
				6.05359673500061e-08,
				7.1013350755322335e-09,
				1
			],
			"scale":[
				1,
				1.0000001192092896,
				1.0000001192092896
			],
			"translation":[
				2.384185791015625e-07,
				0.3374767601490021,
				8.195638656616211e-08
			]
		},
		{
			"children":[
				13
			],
			"name":"Bone.008",
			"rotation":[
				0.007608551532030106,
				0.8943948745727539,
				0.003804335603490472,
				0.4471973478794098
			],
			"scale":[
				1,
				0.9999998211860657,
				1
			],
			"translation":[
				-5.960464477539063e-08,
				0.8065713047981262,
				-3.5762786865234375e-07
			]
		},
		{
			"children":[
				14
			],
			"name":"Bone.002",
			"rotation":[
				0.44719743728637695,
				0.0038041765801608562,
				-0.8943948149681091,
				0.0076086255721747875
			],
			"scale":[
				1,
				0.9999997615814209,
				1
			],
			"translation":[
				0.003333553671836853,
				1.122605562210083,
				0.01417217031121254
			]
		},
		{
			"name":"Bone.014",
			"rotation":[
				1,
				7.8580342233181e-09,
				6.984919309616089e-10,
				1.7118871653565293e-07
			],
			"scale":[
				1,
				1,
				1.0000001192092896
			],
			"translation":[
				-0.15370385348796844,
				-0.8483274579048157,
				-0.19840991497039795
			]
		},
		{
			"mesh":1,
			"name":"Cube",
			"skin":0
		},
		{
			"children":[
				17,
				4,
				7,
				10,
				12,
				15,
				16
			],
			"name":"Armature",
			"rotation":[
				0.3445034325122833,
				0.5803853273391724,
				0.3825816810131073,
				0.6309530138969421
			],
			"scale":[
				0.4335482716560364,
				0.4329816401004791,
				0.3213425576686859
			],
			"translation":[
				1.428458333015442,
				-0.7665520310401917,
				1.3987324237823486
			]
		},
		{
			"name":"Bone.010",
			"rotation":[
				-1.7032574817221757e-07,
				0.4472135305404663,
				1.2286753303669684e-07,
				0.8944272398948669
			],
			"scale":[
				1,
				0.9999999403953552,
				1
			],
			"translation":[
				-2.682209014892578e-07,
				0.3374767303466797,
				-8.847564458847046e-08
			]
		},
		{
			"children":[
				19
			],
			"name":"Bone.006",
			"rotation":[
				6.910249084057796e-08,
				-0.31622764468193054,
				-2.5524208524529968e-08,
				0.9486833214759827
			],
			"scale":[
				0.9999999403953552,
				0.9999999403953552,
				1
			],
			"translation":[
				-3.5762786865234375e-07,
				0.6749528646469116,
				3.5762786865234375e-07
			]
		},
		{
			"children":[
				20
			],
			"name":"Bone",
			"rotation":[
				0.8944272398948669,
				-1.9336338752395932e-08,
				-0.4472135305404663,
				1.395275290860809e-07
			],
			"scale":[
				1,
				0.9999998807907104,
				1
			],
			"translation":[
				-0.6127774715423584,
				0.9978886842727661,
				0.014172486960887909
			]
		},
		{
			"name":"Bone.011",
			"rotation":[
				-6.148258080429514e-08,
				0.4472135305404663,
				1.561875677680291e-07,
				0.8944272398948669
			],
			"scale":[
				0.9999999403953552,
				0.9999998211860657,
				0.9999998807907104
			],
			"translation":[
				-2.086162567138672e-07,
				0.3374771475791931,
				1.3317912817001343e-07
			]
		},
		{
			"children":[
				22
			],
			"name":"Bone.007",
			"rotation":[
				9.845378912132219e-08,
				-0.3162277340888977,
				-1.8652302813393362e-08,
				0.9486833214759827
			],
			"scale":[
				1,
				1,
				0.9999999403953552
			],
			"translation":[
				-3.5762786865234375e-07,
				0.674953818321228,
				4.76837158203125e-07
			]
		},
		{
			"children":[
				23
			],
			"name":"Bone.001",
			"rotation":[
				0.8944272398948669,
				7.736167262351046e-09,
				-0.4472135305404663,
				1.4994003549873014e-07
			],
			"scale":[
				1,
				0.9999998807907104,
				1
			],
			"translation":[
				-1.2933803796768188,
				0.9745619297027588,
				0.01417270302772522
			]
		},
		{
			"name":"Bone.013",
			"rotation":[
				-5.8207664466181086e-08,
				-1.7462296886261441e-10,
				-9.800716682661914e-09,
				1
			],
			"scale":[
				0.9999999403953552,
				0.9999999403953552,
				1
			],
			"translation":[
				3.4365803003311157e-07,
				0.3374766707420349,
				2.2724270820617676e-07
			]
		},
		{
			"children":[
				25
			],
			"name":"Bone.009",
			"rotation":[
				4.6100474548893544e-08,
				-1.1653173714876175e-07,
				1.1270461008905386e-08,
				1
			],
			"scale":[
				1,
				0.9999998211860657,
				1
			],
			"translation":[
				1.5273690223693848e-07,
				0.6749535799026489,
				2.2351741790771484e-08
			]
		},
		{
			"children":[
				26
			],
			"name":"Bone.003",
			"rotation":[
				1,
				-9.007636414537501e-09,
				1.183943822979927e-07,
				1.2619420886039734e-07
			],
			"scale":[
				1,
				0.9999999403953552,
				1
			],
			"translation":[
				0.8691820502281189,
				1.0802197456359863,
				0.014172681607306004
			]
		},
		{
			"name":"Bone.005",
			"rotation":[
				-1.1641533292916506e-09,
				2.2817403078079224e-08,
				6.57164491713047e-08,
				1
			],
			"scale":[
				1,
				0.9999998807907104,
				0.9999998807907104
			],
			"translation":[
				1.9371509552001953e-07,
				0.5000001192092896,
				3.203749656677246e-07
			]
		},
		{
			"children":[
				28
			],
			"name":"Bone.004",
			"rotation":[
				0.9542476534843445,
				-0.29901745915412903,
				5.2458695165569225e-09,
				1.6152398529811762e-07
			],
			"translation":[
				1.8954970836639404,
				-0.2454751431941986,
				0.014173062518239021
			]
		},
		{
			"name":"Bone.012",
			"rotation":[
				3.725290298461914e-09,
				5.8265868574380875e-08,
				-4.583853296935558e-09,
				1
			],
			"translation":[
				5.587935447692871e-08,
				0.33747655153274536,
				-1.1920928955078125e-07
			]
		},
		{
			"children":[
				30
			],
			"name":"Bone.008",
			"rotation":[
				0.007608553394675255,
				0.8943948745727539,
				0.0038043486420065165,
				0.4471973776817322
			],
			"scale":[
				1,
				0.9999998807907104,
				1.0000001192092896
			],
			"translation":[
				-1.7881393432617188e-07,
				0.8065714836120605,
				-5.960464477539063e-08
			]
		},
		{
			"children":[
				31
			],
			"name":"Bone.002",
			"rotation":[
				0.44719740748405457,
				0.003804161213338375,
				-0.8943948149681091,
				0.0076086251065135
			],
			"scale":[
				1,
				0.9999997019767761,
				1
			],
			"translation":[
				0.0033337995409965515,
				1.122605323791504,
				0.014172226190567017
			]
		},
		{
			"name":"Bone.014",
			"rotation":[
				1,
				-1.261651139117248e-08,
				4.656612873077393e-10,
				1.7043203115463257e-07
			],
			"scale":[
				1,
				0.9999999403953552,
				1
			],
			"translation":[
				-0.15370334684848785,
				-0.8483275175094604,
				-0.19841012358665466
			]
		},
		{
			"mesh":2,
			"name":"Cube.001",
			"skin":1
		},
		{
			"children":[
				34,
				21,
				24,
				27,
				29,
				32,
				33
			],
			"name":"Armature.001",
			"rotation":[
				0.658012866973877,
				-0.31370988488197327,
				-0.632264256477356,
				0.26238733530044556
			],
			"scale":[
				-0.43365803360939026,
				-0.43301135301589966,
				-0.32115432620048523
			],
			"translation":[
				1.428458333015442,
				-0.6437395215034485,
				-1.409654140472412
			]
		},
		{
			"mesh":3,
			"name":"Circle",
			"rotation":[
				0.684583842754364,
				0.6845837235450745,
				0.17704525589942932,
				0.1770453155040741
			],
			"scale":[
				0.2288052886724472,
				0.2355448305606842,
				0.2500743567943573
			],
			"translation":[
				1.427319049835205,
				0.6201164126396179,
				0.5516493320465088
			]
		},
		{
			"mesh":4,
			"name":"Circle.001",
			"rotation":[
				0.6963642239570618,
				-0.6963643431663513,
				-0.12278775125741959,
				0.1227877289056778
			],
			"scale":[
				-0.2288052886724472,
				-0.228805273771286,
				-0.228805273771286
			],
			"translation":[
				1.427319049835205,
				0.6201164126396179,
				-0.4728032052516937
			]
		},
		{
			"mesh":5,
			"name":"Circle.002",
			"rotation":[
				0.6408565044403076,
				0.6408563256263733,
				0.29883626103401184,
				0.298836350440979
			],
			"scale":[
				0.128666952252388,
				0.128666952252388,
				0.128666952252388
			],
			"translation":[
				1.1467207670211792,
				0.49231112003326416,
				0.9650601744651794
			]
		},
		{
			"mesh":6,
			"name":"Circle.003",
			"rotation":[
				-0.6408565044403076,
				-0.6408563256263733,
				0.29883626103401184,
				0.2988363206386566
			],
			"scale":[
				0.1216728538274765,
				0.1216728612780571,
				0.1216728612780571
			],
			"translation":[
				1.1467207670211792,
				0.49231112003326416,
				-0.9357172846794128
			]
		},
		{
			"mesh":7,
			"name":"Circle.004",
			"rotation":[
				0,
				0,
				-0.7071068286895752,
				0.7071068286895752
			],
			"scale":[
				0.5676560997962952,
				0.5676560997962952,
				0.5676560997962952
			],
			"translation":[
				0.07065202295780182,
				0,
				0.03755909949541092
			]
		},
		{
			"mesh":8,
			"name":"Circle.005",
			"rotation":[
				0,
				0,
				-0.7944225668907166,
				0.6073654294013977
			],
			"scale":[
				0.5676561594009399,
				0.5676561594009399,
				0.5676560997962952
			],
			"translation":[
				1.5281530618667603,
				-0.28437069058418274,
				0.038662854582071304
			]
		}
	],
	"materials":[
		{
			"doubleSided":true,
			"extensions":{
				"KHR_materials_unlit":{}
			},
			"name":"Material.001",
			"pbrMetallicRoughness":{
				"metallicFactor":0,
				"roughnessFactor":0.9
			}
		},
		{
			"extensions":{
				"KHR_materials_unlit":{}
			},
			"name":"Eyes",
			"pbrMetallicRoughness":{
				"metallicFactor":0,
				"roughnessFactor":0.9
			}
		},
		{
			"emissiveFactor":[
				1,
				0.26224506217210786,
				0
			],
			"extensions":{
				"KHR_materials_emissive_strength":{
					"emissiveStrength":1.0000240802764893
				}
			},
			"name":"Material",
			"pbrMetallicRoughness":{
				"baseColorFactor":[
					0,
					0,
					0,
					1
				]
			}
		},
		{
			"doubleSided":true,
			"extensions":{
				"KHR_materials_unlit":{}
			},
			"name":"Mouth",
			"pbrMetallicRoughness":{
				"metallicFactor":0,
				"roughnessFactor":0.9
			}
		},
		{
			"name":"Material.003"
		}
	],
	"meshes":[
		{
			"extras":{
				"targetNames":[
					"exagerrated_shock_full"
				]
			},
			"name":"Sphere",
			"primitives":[
				{
					"attributes":{
						"POSITION":0,
						"NORMAL":1,
						"TEXCOORD_0":2
					},
					"indices":3,
					"material":0,
					"targets":[
						{
							"POSITION":4,
							"NORMAL":5
						}
					]
				}
			],
			"weights":[
				0
			]
		},
		{
			"name":"Cube.002",
			"primitives":[
				{
					"attributes":{
						"POSITION":6,
						"NORMAL":7,
						"TEXCOORD_0":8,
						"JOINTS_0":9,
						"WEIGHTS_0":10
					},
					"indices":11,
					"material":0
				}
			]
		},
		{
			"name":"Cube.003",
			"primitives":[
				{
					"attributes":{
						"POSITION":13,
						"NORMAL":14,
						"TEXCOORD_0":15,
						"JOINTS_0":16,
						"WEIGHTS_0":17
					},
					"indices":11,
					"material":0
				}
			]
		},
		{
			"extras":{
				"targetNames":[
					"Happy",
					"Sad",
					"Blink",
					"exagerrated_shock_eyes"
				]
			},
			"name":"Circle",
			"primitives":[
				{
					"attributes":{
						"POSITION":19,
						"NORMAL":20,
						"TEXCOORD_0":21
					},
					"indices":22,
					"material":1,
					"targets":[
						{
							"POSITION":23,
							"NORMAL":24
						},
						{
							"POSITION":25,
							"NORMAL":26
						},
						{
							"POSITION":27,
							"NORMAL":28
						},
						{
							"POSITION":29,
							"NORMAL":30
						}
					]
				}
			],
			"weights":[
				0.5,
				0,
				0,
				0
			]
		},
		{
			"extras":{
				"targetNames":[
					"Happy",
					"Sad",
					"Blink",
					"exagerrated_shock_eyes"
				]
			},
			"name":"Circle.001",
			"primitives":[
				{
					"attributes":{
						"POSITION":31,
						"NORMAL":32,
						"TEXCOORD_0":33
					},
					"indices":22,
					"material":1,
					"targets":[
						{
							"POSITION":34,
							"NORMAL":35
						},
						{
							"POSITION":36,
							"NORMAL":37
						},
						{
							"POSITION":38,
							"NORMAL":39
						},
						{
							"POSITION":40,
							"NORMAL":41
						}
					]
				}
			],
			"weights":[
				0.5,
				0,
				0,
				0
			]
		},
		{
			"name":"Circle.002",
			"primitives":[
				{
					"attributes":{
						"POSITION":42,
						"NORMAL":43,
						"TEXCOORD_0":44
					},
					"indices":22,
					"material":2
				}
			]
		},
		{
			"name":"Circle.003",
			"primitives":[
				{
					"attributes":{
						"POSITION":45,
						"NORMAL":46,
						"TEXCOORD_0":47
					},
					"indices":22,
					"material":2
				}
			]
		},
		{
			"extras":{
				"targetNames":[
					"happy-xtra",
					"Smile-close",
					"Frown",
					"exagerrated_shock",
					"Open-A",
					"Gritted-Teeth",
					"Open-O"
				]
			},
			"name":"Circle.004",
			"primitives":[
				{
					"attributes":{
						"POSITION":48,
						"NORMAL":49,
						"TEXCOORD_0":50
					},
					"indices":51,
					"material":3,
					"targets":[
						{
							"POSITION":52,
							"NORMAL":53
						},
						{
							"POSITION":54,
							"NORMAL":55
						},
						{
							"POSITION":56,
							"NORMAL":57
						},
						{
							"POSITION":58,
							"NORMAL":59
						},
						{
							"POSITION":60,
							"NORMAL":61
						},
						{
							"POSITION":62,
							"NORMAL":63
						},
						{
							"POSITION":64,
							"NORMAL":65
						}
					]
				}
			],
			"weights":[
				0,
				0,
				0,
				0,
				0,
				0,
				0
			]
		},
		{
			"extras":{
				"targetNames":[
					"exagerrated_shock_mouth",
					"Frown"
				]
			},
			"name":"Circle.005",
			"primitives":[
				{
					"attributes":{
						"POSITION":66,
						"NORMAL":67,
						"TEXCOORD_0":68
					},
					"indices":69,
					"material":4,
					"targets":[
						{
							"POSITION":70,
							"NORMAL":71
						},
						{
							"POSITION":72,
							"NORMAL":73
						}
					]
				}
			],
			"weights":[
				0,
				0
			]
		}
	],
	"skins":[
		{
			"inverseBindMatrices":12,
			"joints":[
				4,
				3,
				2,
				7,
				6,
				5,
				10,
				9,
				8,
				12,
				11,
				15,
				14,
				13,
				16
			],
			"name":"Armature"
		},
		{
			"inverseBindMatrices":18,
			"joints":[
				21,
				20,
				19,
				24,
				23,
				22,
				27,
				26,
				25,
				29,
				28,
				32,
				31,
				30,
				33
			],
			"name":"Armature.001"
		}
	],
	"accessors":[
		{
			"bufferView":0,
			"componentType":5126,
			"count":559,
			"max":[
				0.9999997019767761,
				1,
				0.9999993443489075
			],
			"min":[
				-0.9999990463256836,
				-1,
				-1
			],
			"type":"VEC3"
		},
		{
			"bufferView":1,
			"componentType":5126,
			"count":559,
			"type":"VEC3"
		},
		{
			"bufferView":2,
			"componentType":5126,
			"count":559,
			"type":"VEC2"
		},
		{
			"bufferView":3,
			"componentType":5123,
			"count":2880,
			"type":"SCALAR"
		},
		{
			"componentType":5126,
			"count":559,
			"max":[
				0,
				0,
				0
			],
			"min":[
				0,
				0,
				0
			],
			"sparse":{
				"count":1,
				"indices":{
					"bufferView":4,
					"componentType":5121
				},
				"values":{
					"bufferView":5
				}
			},
			"type":"VEC3"
		},
		{
			"bufferView":6,
			"componentType":5126,
			"count":559,
			"type":"VEC3"
		},
		{
			"bufferView":7,
			"componentType":5126,
			"count":901,
			"max":[
				1.638963222503662,
				0.061863720417022705,
				2.1601555347442627
			],
			"min":[
				1.2409710884094238,
				-1.785185694694519,
				0.2390419840812683
			],
			"type":"VEC3"
		},
		{
			"bufferView":8,
			"componentType":5126,
			"count":901,
			"type":"VEC3"
		},
		{
			"bufferView":9,
			"componentType":5126,
			"count":901,
			"type":"VEC2"
		},
		{
			"bufferView":10,
			"componentType":5121,
			"count":901,
			"type":"VEC4"
		},
		{
			"bufferView":11,
			"componentType":5126,
			"count":901,
			"type":"VEC4"
		},
		{
			"bufferView":12,
			"componentType":5123,
			"count":4608,
			"type":"SCALAR"
		},
		{
			"bufferView":13,
			"componentType":5126,
			"count":15,
			"type":"MAT4"
		},
		{
			"bufferView":14,
			"componentType":5126,
			"count":901,
			"max":[
				1.5491149425506592,
				0.06624758243560791,
				-0.34161508083343506
			],
			"min":[
				1.139635443687439,
				-1.7637802362442017,
				-2.222278118133545
			],
			"type":"VEC3"
		},
		{
			"bufferView":15,
			"componentType":5126,
			"count":901,
			"type":"VEC3"
		},
		{
			"bufferView":16,
			"componentType":5126,
			"count":901,
			"type":"VEC2"
		},
		{
			"bufferView":17,
			"componentType":5121,
			"count":901,
			"type":"VEC4"
		},
		{
			"bufferView":18,
			"componentType":5126,
			"count":901,
			"type":"VEC4"
		},
		{
			"bufferView":19,
			"componentType":5126,
			"count":15,
			"type":"MAT4"
		},
		{
			"bufferView":20,
			"componentType":5126,
			"count":81,
			"max":[
				1,
				0,
				1
			],
			"min":[
				-1,
				0,
				-1
			],
			"type":"VEC3"
		},
		{
			"bufferView":21,
			"componentType":5126,
			"count":81,
			"type":"VEC3"
		},
		{
			"bufferView":22,
			"componentType":5126,
			"count":81,
			"type":"VEC2"
		},
		{
			"bufferView":23,
			"componentType":5123,
			"count":384,
			"type":"SCALAR"
		},
		{
			"bufferView":24,
			"componentType":5126,
			"count":81,
			"max":[
				1.229954481124878,
				-7.730900919433736e-10,
				-0.0009282231330871582
			],
			"min":[
				0.0024172067642211914,
				-3.7297348853826406e-07,
				-0.40968549251556396
			],
			"type":"VEC3"
		},
		{
			"componentType":5126,
			"count":81,
			"sparse":{
				"count":1,
				"indices":{
					"bufferView":25,
					"componentType":5121
				},
				"values":{
					"bufferView":26
				}
			},
			"type":"VEC3"
		},
		{
			"bufferView":27,
			"componentType":5126,
			"count":81,
			"max":[
				0,
				1.7484642000908934e-07,
				0.00020159780979156494
			],
			"min":[
				-0.9242440462112427,
				0,
				-0.015684135258197784
			],
			"type":"VEC3"
		},
		{
			"componentType":5126,
			"count":81,
			"sparse":{
				"count":1,
				"indices":{
					"bufferView":28,
					"componentType":5121
				},
				"values":{
					"bufferView":29
				}
			},
			"type":"VEC3"
		},
		{
			"bufferView":30,
			"componentType":5126,
			"count":81,
			"max":[
				0.7046172618865967,
				2.0287376401029178e-07,
				0.4594651460647583
			],
			"min":[
				-0.7046172618865967,
				-2.0287373558858235e-07,
				-0.4594651460647583
			],
			"type":"VEC3"
		},
		{
			"componentType":5126,
			"count":81,
			"sparse":{
				"count":1,
				"indices":{
					"bufferView":31,
					"componentType":5121
				},
				"values":{
					"bufferView":32
				}
			},
			"type":"VEC3"
		},
		{
			"bufferView":33,
			"componentType":5126,
			"count":81,
			"max":[
				0.5594264268875122,
				9.690209878954192e-08,
				5.960464477539063e-08
			],
			"min":[
				-0.5594264268875122,
				-9.690210589496928e-08,
				-5.960464477539063e-08
			],
			"type":"VEC3"
		},
		{
			"componentType":5126,
			"count":81,
			"sparse":{
				"count":1,
				"indices":{
					"bufferView":34,
					"componentType":5121
				},
				"values":{
					"bufferView":35
				}
			},
			"type":"VEC3"
		},
		{
			"bufferView":36,
			"componentType":5126,
			"count":81,
			"max":[
				1,
				2.2708343649924245e-08,
				1.0696914196014404
			],
			"min":[
				-1,
				2.2708343649924245e-08,
				-0.9303085803985596
			],
			"type":"VEC3"
		},
		{
			"bufferView":37,
			"componentType":5126,
			"count":81,
			"type":"VEC3"
		},
		{
			"bufferView":38,
			"componentType":5126,
			"count":81,
			"type":"VEC2"
		},
		{
			"bufferView":39,
			"componentType":5126,
			"count":81,
			"max":[
				1.229954481124878,
				-7.730900364322224e-10,
				-0.0009282231330871582
			],
			"min":[
				0.0024172067642211914,
				-3.7297348853826406e-07,
				-0.40968549251556396
			],
			"type":"VEC3"
		},
		{
			"componentType":5126,
			"count":81,
			"sparse":{
				"count":1,
				"indices":{
					"bufferView":40,
					"componentType":5121
				},
				"values":{
					"bufferView":41
				}
			},
			"type":"VEC3"
		},
		{
			"bufferView":42,
			"componentType":5126,
			"count":81,
			"max":[
				0,
				1.7484642000908934e-07,
				0.00020159780979156494
			],
			"min":[
				-0.9242440462112427,
				0,
				-0.015684135258197784
			],
			"type":"VEC3"
		},
		{
			"componentType":5126,
			"count":81,
			"sparse":{
				"count":1,
				"indices":{
					"bufferView":43,
					"componentType":5121
				},
				"values":{
					"bufferView":44
				}
			},
			"type":"VEC3"
		},
		{
			"bufferView":45,
			"componentType":5126,
			"count":81,
			"max":[
				0.7046172618865967,
				2.3193828724288323e-07,
				0.45946502685546875
			],
			"min":[
				-0.7046172618865967,
				-2.3193823039946437e-07,
				-0.45946502685546875
			],
			"type":"VEC3"
		},
		{
			"componentType":5126,
			"count":81,
			"sparse":{
				"count":1,
				"indices":{
					"bufferView":46,
					"componentType":5121
				},
				"values":{
					"bufferView":47
				}
			},
			"type":"VEC3"
		},
		{
			"bufferView":48,
			"componentType":5126,
			"count":81,
			"max":[
				0.5073814392089844,
				9.717135895925821e-08,
				5.960464477539063e-08
			],
			"min":[
				-0.5073812007904053,
				-9.717138027554029e-08,
				-1.1920928955078125e-07
			],
			"type":"VEC3"
		},
		{
			"componentType":5126,
			"count":81,
			"sparse":{
				"count":1,
				"indices":{
					"bufferView":49,
					"componentType":5121
				},
				"values":{
					"bufferView":50
				}
			},
			"type":"VEC3"
		},
		{
			"bufferView":51,
			"componentType":5126,
			"count":81,
			"max":[
				0.9999999403953552,
				0.3360258936882019,
				1.281959056854248
			],
			"min":[
				-0.9999999403953552,
				-0.3360258936882019,
				-1.281959056854248
			],
			"type":"VEC3"
		},
		{
			"bufferView":52,
			"componentType":5126,
			"count":81,
			"type":"VEC3"
		},
		{
			"bufferView":53,
			"componentType":5126,
			"count":81,
			"type":"VEC2"
		},
		{
			"bufferView":54,
			"componentType":5126,
			"count":81,
			"max":[
				1,
				0.3360258936882019,
				1.281959056854248
			],
			"min":[
				-1,
				-0.3360258936882019,
				-1.281959056854248
			],
			"type":"VEC3"
		},
		{
			"bufferView":55,
			"componentType":5126,
			"count":81,
			"type":"VEC3"
		},
		{
			"bufferView":56,
			"componentType":5126,
			"count":81,
			"type":"VEC2"
		},
		{
			"bufferView":57,
			"componentType":5126,
			"count":256,
			"max":[
				0.7682797908782959,
				2.618513345718384,
				0.9489606022834778
			],
			"min":[
				-0.34465211629867554,
				2.4334235191345215,
				-0.9640377163887024
			],
			"type":"VEC3"
		},
		{
			"bufferView":58,
			"componentType":5126,
			"count":256,
			"type":"VEC3"
		},
		{
			"bufferView":59,
			"componentType":5126,
			"count":256,
			"type":"VEC2"
		},
		{
			"bufferView":60,
			"componentType":5123,
			"count":384,
			"type":"SCALAR"
		},
		{
			"bufferView":61,
			"componentType":5126,
			"count":256,
			"max":[
				0,
				0,
				0
			],
			"min":[
				-0.26363712549209595,
				0,
				0
			],
			"type":"VEC3"
		},
		{
			"componentType":5126,
			"count":256,
			"sparse":{
				"count":212,
				"indices":{
					"bufferView":62,
					"componentType":5121
				},
				"values":{
					"bufferView":63
				}
			},
			"type":"VEC3"
		},
		{
			"bufferView":64,
			"componentType":5126,
			"count":256,
			"max":[
				0.5057071447372437,
				0.0987403392791748,
				1.4901161193847656e-08
			],
			"min":[
				0.006142914295196533,
				-0.030950069427490234,
				-1.862645149230957e-09
			],
			"type":"VEC3"
		},
		{
			"bufferView":65,
			"componentType":5126,
			"count":256,
			"type":"VEC3"
		},
		{
			"bufferView":66,
			"componentType":5126,
			"count":256,
			"max":[
				1.0292855501174927,
				0.18131637573242188,
				0.1268407106399536
			],
			"min":[
				-0.8663090467453003,
				0.1278400421142578,
				-0.237657368183136
			],
			"type":"VEC3"
		},
		{
			"bufferView":67,
			"componentType":5126,
			"count":256,
			"type":"VEC3"
		},
		{
			"bufferView":68,
			"componentType":5126,
			"count":256,
			"max":[
				0.4131459593772888,
				0.008881092071533203,
				0.20754319429397583
			],
			"min":[
				-0.4806004464626312,
				0.008881092071533203,
				-0.20635497570037842
			],
			"type":"VEC3"
		},
		{
			"componentType":5126,
			"count":256,
			"sparse":{
				"count":212,
				"indices":{
					"bufferView":69,
					"componentType":5121
				},
				"values":{
					"bufferView":70
				}
			},
			"type":"VEC3"
		},
		{
			"componentType":5126,
			"count":256,
			"max":[
				0.3836929202079773,
				0.0024483203887939453,
				0.08789771795272827
			],
			"min":[
				-0.002799689769744873,
				-0.009851694107055664,
				-0.08753615617752075
			],
			"sparse":{
				"count":214,
				"indices":{
					"bufferView":71,
					"componentType":5121
				},
				"values":{
					"bufferView":72
				}
			},
			"type":"VEC3"
		},
		{
			"bufferView":73,
			"componentType":5126,
			"count":256,
			"type":"VEC3"
		},
		{
			"bufferView":74,
			"componentType":5126,
			"count":256,
			"max":[
				0.5062505602836609,
				-0.03869485855102539,
				-0.03010392189025879
			],
			"min":[
				-0.22281569242477417,
				-0.03869485855102539,
				-0.030103981494903564
			],
			"type":"VEC3"
		},
		{
			"componentType":5126,
			"count":256,
			"sparse":{
				"count":212,
				"indices":{
					"bufferView":75,
					"componentType":5121
				},
				"values":{
					"bufferView":76
				}
			},
			"type":"VEC3"
		},
		{
			"bufferView":77,
			"componentType":5126,
			"count":256,
			"max":[
				0.32409989833831787,
				0.05816364288330078,
				0.25505828857421875
			],
			"min":[
				-0.3158276379108429,
				-0.13636445999145508,
				-0.25331777334213257
			],
			"type":"VEC3"
		},
		{
			"bufferView":78,
			"componentType":5126,
			"count":256,
			"type":"VEC3"
		},
		{
			"bufferView":79,
			"componentType":5126,
			"count":33,
			"max":[
				0.23765575885772705,
				1.430511474609375e-06,
				0.5301716923713684
			],
			"min":[
				-0.2515057325363159,
				1.430511474609375e-06,
				-0.563274085521698
			],
			"type":"VEC3"
		},
		{
			"bufferView":80,
			"componentType":5126,
			"count":33,
			"type":"VEC3"
		},
		{
			"bufferView":81,
			"componentType":5126,
			"count":33,
			"type":"VEC2"
		},
		{
			"bufferView":82,
			"componentType":5123,
			"count":138,
			"type":"SCALAR"
		},
		{
			"bufferView":83,
			"componentType":5126,
			"count":33,
			"max":[
				0.36374431848526,
				0.08757719397544861,
				1.862645149230957e-09
			],
			"min":[
				0.3637442886829376,
				0.08757719397544861,
				0
			],
			"type":"VEC3"
		},
		{
			"componentType":5126,
			"count":33,
			"sparse":{
				"count":1,
				"indices":{
					"bufferView":84,
					"componentType":5121
				},
				"values":{
					"bufferView":85
				}
			},
			"type":"VEC3"
		},
		{
			"componentType":5126,
			"count":33,
			"max":[
				0,
				0,
				0
			],
			"min":[
				0,
				0,
				0
			],
			"sparse":{
				"count":1,
				"indices":{
					"bufferView":86,
					"componentType":5121
				},
				"values":{
					"bufferView":87
				}
			},
			"type":"VEC3"
		},
		{
			"componentType":5126,
			"count":33,
			"sparse":{
				"count":1,
				"indices":{
					"bufferView":88,
					"componentType":5121
				},
				"values":{
					"bufferView":89
				}
			},
			"type":"VEC3"
		}
	],
	"bufferViews":[
		{
			"buffer":0,
			"byteLength":6708,
			"byteOffset":0,
			"target":34962
		},
		{
			"buffer":0,
			"byteLength":6708,
			"byteOffset":6708,
			"target":34962
		},
		{
			"buffer":0,
			"byteLength":4472,
			"byteOffset":13416,
			"target":34962
		},
		{
			"buffer":0,
			"byteLength":5760,
			"byteOffset":17888,
			"target":34963
		},
		{
			"buffer":0,
			"byteLength":1,
			"byteOffset":23648
		},
		{
			"buffer":0,
			"byteLength":12,
			"byteOffset":23652
		},
		{
			"buffer":0,
			"byteLength":6708,
			"byteOffset":23664,
			"target":34962
		},
		{
			"buffer":0,
			"byteLength":10812,
			"byteOffset":30372,
			"target":34962
		},
		{
			"buffer":0,
			"byteLength":10812,
			"byteOffset":41184,
			"target":34962
		},
		{
			"buffer":0,
			"byteLength":7208,
			"byteOffset":51996,
			"target":34962
		},
		{
			"buffer":0,
			"byteLength":3604,
			"byteOffset":59204,
			"target":34962
		},
		{
			"buffer":0,
			"byteLength":14416,
			"byteOffset":62808,
			"target":34962
		},
		{
			"buffer":0,
			"byteLength":9216,
			"byteOffset":77224,
			"target":34963
		},
		{
			"buffer":0,
			"byteLength":960,
			"byteOffset":86440
		},
		{
			"buffer":0,
			"byteLength":10812,
			"byteOffset":87400,
			"target":34962
		},
		{
			"buffer":0,
			"byteLength":10812,
			"byteOffset":98212,
			"target":34962
		},
		{
			"buffer":0,
			"byteLength":7208,
			"byteOffset":109024,
			"target":34962
		},
		{
			"buffer":0,
			"byteLength":3604,
			"byteOffset":116232,
			"target":34962
		},
		{
			"buffer":0,
			"byteLength":14416,
			"byteOffset":119836,
			"target":34962
		},
		{
			"buffer":0,
			"byteLength":960,
			"byteOffset":134252
		},
		{
			"buffer":0,
			"byteLength":972,
			"byteOffset":135212,
			"target":34962
		},
		{
			"buffer":0,
			"byteLength":972,
			"byteOffset":136184,
			"target":34962
		},
		{
			"buffer":0,
			"byteLength":648,
			"byteOffset":137156,
			"target":34962
		},
		{
			"buffer":0,
			"byteLength":768,
			"byteOffset":137804,
			"target":34963
		},
		{
			"buffer":0,
			"byteLength":972,
			"byteOffset":138572,
			"target":34962
		},
		{
			"buffer":0,
			"byteLength":1,
			"byteOffset":139544
		},
		{
			"buffer":0,
			"byteLength":12,
			"byteOffset":139548
		},
		{
			"buffer":0,
			"byteLength":972,
			"byteOffset":139560,
			"target":34962
		},
		{
			"buffer":0,
			"byteLength":1,
			"byteOffset":140532
		},
		{
			"buffer":0,
			"byteLength":12,
			"byteOffset":140536
		},
		{
			"buffer":0,
			"byteLength":972,
			"byteOffset":140548,
			"target":34962
		},
		{
			"buffer":0,
			"byteLength":1,
			"byteOffset":141520
		},
		{
			"buffer":0,
			"byteLength":12,
			"byteOffset":141524
		},
		{
			"buffer":0,
			"byteLength":972,
			"byteOffset":141536,
			"target":34962
		},
		{
			"buffer":0,
			"byteLength":1,
			"byteOffset":142508
		},
		{
			"buffer":0,
			"byteLength":12,
			"byteOffset":142512
		},
		{
			"buffer":0,
			"byteLength":972,
			"byteOffset":142524,
			"target":34962
		},
		{
			"buffer":0,
			"byteLength":972,
			"byteOffset":143496,
			"target":34962
		},
		{
			"buffer":0,
			"byteLength":648,
			"byteOffset":144468,
			"target":34962
		},
		{
			"buffer":0,
			"byteLength":972,
			"byteOffset":145116,
			"target":34962
		},
		{
			"buffer":0,
			"byteLength":1,
			"byteOffset":146088
		},
		{
			"buffer":0,
			"byteLength":12,
			"byteOffset":146092
		},
		{
			"buffer":0,
			"byteLength":972,
			"byteOffset":146104,
			"target":34962
		},
		{
			"buffer":0,
			"byteLength":1,
			"byteOffset":147076
		},
		{
			"buffer":0,
			"byteLength":12,
			"byteOffset":147080
		},
		{
			"buffer":0,
			"byteLength":972,
			"byteOffset":147092,
			"target":34962
		},
		{
			"buffer":0,
			"byteLength":1,
			"byteOffset":148064
		},
		{
			"buffer":0,
			"byteLength":12,
			"byteOffset":148068
		},
		{
			"buffer":0,
			"byteLength":972,
			"byteOffset":148080,
			"target":34962
		},
		{
			"buffer":0,
			"byteLength":1,
			"byteOffset":149052
		},
		{
			"buffer":0,
			"byteLength":12,
			"byteOffset":149056
		},
		{
			"buffer":0,
			"byteLength":972,
			"byteOffset":149068,
			"target":34962
		},
		{
			"buffer":0,
			"byteLength":972,
			"byteOffset":150040,
			"target":34962
		},
		{
			"buffer":0,
			"byteLength":648,
			"byteOffset":151012,
			"target":34962
		},
		{
			"buffer":0,
			"byteLength":972,
			"byteOffset":151660,
			"target":34962
		},
		{
			"buffer":0,
			"byteLength":972,
			"byteOffset":152632,
			"target":34962
		},
		{
			"buffer":0,
			"byteLength":648,
			"byteOffset":153604,
			"target":34962
		},
		{
			"buffer":0,
			"byteLength":3072,
			"byteOffset":154252,
			"target":34962
		},
		{
			"buffer":0,
			"byteLength":3072,
			"byteOffset":157324,
			"target":34962
		},
		{
			"buffer":0,
			"byteLength":2048,
			"byteOffset":160396,
			"target":34962
		},
		{
			"buffer":0,
			"byteLength":768,
			"byteOffset":162444,
			"target":34963
		},
		{
			"buffer":0,
			"byteLength":3072,
			"byteOffset":163212,
			"target":34962
		},
		{
			"buffer":0,
			"byteLength":212,
			"byteOffset":166284
		},
		{
			"buffer":0,
			"byteLength":2544,
			"byteOffset":166496
		},
		{
			"buffer":0,
			"byteLength":3072,
			"byteOffset":169040,
			"target":34962
		},
		{
			"buffer":0,
			"byteLength":3072,
			"byteOffset":172112,
			"target":34962
		},
		{
			"buffer":0,
			"byteLength":3072,
			"byteOffset":175184,
			"target":34962
		},
		{
			"buffer":0,
			"byteLength":3072,
			"byteOffset":178256,
			"target":34962
		},
		{
			"buffer":0,
			"byteLength":3072,
			"byteOffset":181328,
			"target":34962
		},
		{
			"buffer":0,
			"byteLength":212,
			"byteOffset":184400
		},
		{
			"buffer":0,
			"byteLength":2544,
			"byteOffset":184612
		},
		{
			"buffer":0,
			"byteLength":214,
			"byteOffset":187156
		},
		{
			"buffer":0,
			"byteLength":2568,
			"byteOffset":187372
		},
		{
			"buffer":0,
			"byteLength":3072,
			"byteOffset":189940,
			"target":34962
		},
		{
			"buffer":0,
			"byteLength":3072,
			"byteOffset":193012,
			"target":34962
		},
		{
			"buffer":0,
			"byteLength":212,
			"byteOffset":196084
		},
		{
			"buffer":0,
			"byteLength":2544,
			"byteOffset":196296
		},
		{
			"buffer":0,
			"byteLength":3072,
			"byteOffset":198840,
			"target":34962
		},
		{
			"buffer":0,
			"byteLength":3072,
			"byteOffset":201912,
			"target":34962
		},
		{
			"buffer":0,
			"byteLength":396,
			"byteOffset":204984,
			"target":34962
		},
		{
			"buffer":0,
			"byteLength":396,
			"byteOffset":205380,
			"target":34962
		},
		{
			"buffer":0,
			"byteLength":264,
			"byteOffset":205776,
			"target":34962
		},
		{
			"buffer":0,
			"byteLength":276,
			"byteOffset":206040,
			"target":34963
		},
		{
			"buffer":0,
			"byteLength":396,
			"byteOffset":206316,
			"target":34962
		},
		{
			"buffer":0,
			"byteLength":1,
			"byteOffset":206712
		},
		{
			"buffer":0,
			"byteLength":12,
			"byteOffset":206716
		},
		{
			"buffer":0,
			"byteLength":1,
			"byteOffset":206728
		},
		{
			"buffer":0,
			"byteLength":12,
			"byteOffset":206732
		},
		{
			"buffer":0,
			"byteLength":1,
			"byteOffset":206744
		},
		{
			"buffer":0,
			"byteLength":12,
			"byteOffset":206748
		}
	],
	"buffers":[
		{
			"byteLength":206760,
			"uri":"huggingface.bin"
		}
	]
}
